# xmcd
#
# Track frame offsets: 
#        150
#        17641
#        34029
#        48056
#        63899
#        75610
#        89576
#        104375
#        125529
#
# Disc length: 1826 seconds
#
# Revision: 0
# Processed by: cddbd v1.5.2PL0 Copyright (c) Steve Scherf et al.
# Submitted via: ExactAudioCopy v0.95b4
#
DISCID=67072009
DTITLE=Feelin' Good Bluesband - Feel So Good
DYEAR=2010
DGENRE=Blues
TTITLE0=Walkin' The Dog
TTITLE1=Roll Me Baby
TTITLE2=Zu Fuﬂ Blues
TTITLE3=Mojo Boogie
TTITLE4=That's Allright
TTITLE5=Walkin' To My Baby
TTITLE6=Everyday
TTITLE7=Feel So Good
TTITLE8=Date Bait
EXTD=
EXTT0=
EXTT1=
EXTT2=
EXTT3=
EXTT4=
EXTT5=
EXTT6=
EXTT7=
EXTT8=
PLAYORDER=
